<?xml version="1.0" encoding="UTF-8"?>
<svg xmlns="http://www.w3.org/2000/svg" xmlns:xlink="http://www.w3.org/1999/xlink" viewBox="0 0 24 24" width="24px" height="24px">
<g id="surface14264823">
<path style=" stroke:none;fill-rule:nonzero;fill:rgb(22.745098%,52.549022%,100%);fill-opacity:1;" d="M 12 2 C 6.484375 2 2 6.484375 2 12 C 2 17.515625 6.484375 22 12 22 C 17.515625 22 22 17.515625 22 12 C 22 10.875 21.804688 9.792969 21.460938 8.78125 L 19.839844 10.402344 C 19.945312 10.917969 20 11.453125 20 12 C 20 16.410156 16.410156 20 12 20 C 7.589844 20 4 16.410156 4 12 C 4 7.589844 7.589844 4 12 4 C 13.632812 4 15.152344 4.492188 16.421875 5.339844 L 17.851562 3.90625 C 16.203125 2.710938 14.183594 2 12 2 Z M 21.292969 3.292969 L 11 13.585938 L 7.707031 10.292969 L 6.292969 11.707031 L 11 16.414062 L 22.707031 4.707031 Z M 21.292969 3.292969 "/>
</g>
</svg>
